<svg width="148" height="77" viewBox="0 0 148 77" fill="none" xmlns="http://www.w3.org/2000/svg">
<g filter="url(#filter0_d_1_676)">
<path d="M12.9936 18C12.9936 10.268 19.5727 4 27.6885 4H125.305C133.421 4 140 10.268 140 18V51C140 58.732 133.421 65 125.305 65H27.6885C19.5727 65 12.9936 58.732 12.9936 51V18Z" fill="white"/>
<path d="M15.6022 42.1213C16.8319 40.9497 18.8257 40.9497 20.0554 42.1213L26.7353 48.4853C27.965 49.6569 27.965 51.5564 26.7353 52.7279L20.0554 59.0919C18.8257 60.2635 16.8319 60.2635 15.6022 59.0919L8.9223 52.7279C7.69257 51.5563 7.69257 49.6569 8.9223 48.4853L15.6022 42.1213Z" fill="white"/>
</g>
<defs>
<filter id="filter0_d_1_676" x="0" y="0" width="148" height="77" filterUnits="userSpaceOnUse" color-interpolation-filters="sRGB">
<feFlood flood-opacity="0" result="BackgroundImageFix"/>
<feColorMatrix in="SourceAlpha" type="matrix" values="0 0 0 0 0 0 0 0 0 0 0 0 0 0 0 0 0 0 127 0" result="hardAlpha"/>
<feOffset dy="4"/>
<feGaussianBlur stdDeviation="4"/>
<feColorMatrix type="matrix" values="0 0 0 0 0 0 0 0 0 0 0 0 0 0 0 0 0 0 0.12 0"/>
<feBlend mode="normal" in2="BackgroundImageFix" result="effect1_dropShadow_1_676"/>
<feBlend mode="normal" in="SourceGraphic" in2="effect1_dropShadow_1_676" result="shape"/>
</filter>
</defs>
</svg>
