<svg width="76" height="74" viewBox="0 0 76 74" fill="none" xmlns="http://www.w3.org/2000/svg">
<path d="M6.83166e-07 1.97762C6.96358e-07 0.871333 0.89724 -0.0282257 2.00315 0.000677574C19.6032 0.46066 36.5321 6.97103 49.9194 18.4684C63.3068 29.9658 72.2992 45.7172 75.4119 63.046C75.6075 64.1348 74.8538 65.1576 73.7602 65.3247L17.1282 73.9769C16.0346 74.1439 15.0254 73.387 14.7172 72.3246C13.8917 69.4786 12.2536 66.9179 9.98389 64.9686C7.71418 63.0193 4.93548 61.7868 1.99748 61.4006C0.900632 61.2564 -1.31924e-08 60.373 0 59.2667L6.83166e-07 1.97762Z" fill="#00B074"/>
</svg>
