<svg width="6" height="6" viewBox="0 0 6 6" fill="none" xmlns="http://www.w3.org/2000/svg">
<g clip-path="url(#clip0_0_69)">
<path d="M0.889142 2.8535C0.982146 2.94723 1.10827 2.99989 1.23978 2.99989C1.37128 2.99989 1.49741 2.94723 1.59041 2.8535L2.47964 1.95699L2.47964 5.25C2.47964 5.38261 2.5319 5.50979 2.6249 5.60356C2.71791 5.69733 2.84406 5.75 2.97559 5.75C3.10712 5.75 3.23327 5.69733 3.32628 5.60356C3.41929 5.50979 3.47154 5.38261 3.47154 5.25L3.47154 1.95699L4.36077 2.8535C4.45431 2.94458 4.57959 2.99497 4.70962 2.99383C4.83966 2.9927 4.96405 2.94011 5.056 2.84741C5.14795 2.7547 5.20011 2.6293 5.20124 2.4982C5.20237 2.3671 5.15238 2.2408 5.06204 2.1465L3.32623 0.396491C3.23322 0.302755 3.1071 0.250097 2.97559 0.250097C2.84408 0.250097 2.71796 0.302755 2.62496 0.396491L0.889142 2.14649C0.796166 2.24026 0.743935 2.36741 0.743935 2.5C0.743935 2.63258 0.796166 2.75973 0.889142 2.8535Z" fill="#00A389"/>
</g>
<defs>
<clipPath id="clip0_0_69">
<rect width="5.64706" height="5.69322" fill="white" transform="translate(5.95137 6) scale(1.05389) rotate(-180)"/>
</clipPath>
</defs>
</svg>
