<svg width="20" height="20" viewBox="0 0 20 20" fill="none" xmlns="http://www.w3.org/2000/svg">
<path d="M10.5417 1.86669C10.3908 1.7376 10.1987 1.66667 10 1.66669H4.16671C3.94569 1.66669 3.73373 1.75448 3.57745 1.91076C3.42117 2.06704 3.33337 2.27901 3.33337 2.50002V17.5C3.33337 17.721 3.42117 17.933 3.57745 18.0893C3.73373 18.2456 3.94569 18.3334 4.16671 18.3334H15.8334C16.0544 18.3334 16.2664 18.2456 16.4226 18.0893C16.5789 17.933 16.6667 17.721 16.6667 17.5V7.50002C16.6667 7.37965 16.6406 7.26071 16.5903 7.15138C16.5399 7.04205 16.4665 6.94493 16.375 6.86669L10.5417 1.86669ZM10.8334 4.30835L13.5834 6.66669H10.8334V4.30835ZM15 16.6667H5.00004V3.33335H9.16671V7.50002C9.16671 7.72103 9.25451 7.933 9.41079 8.08928C9.56707 8.24556 9.77903 8.33335 10 8.33335H15V16.6667Z" fill="#464255"/>
</svg>
