<svg width="6" height="6" viewBox="0 0 6 6" fill="none" xmlns="http://www.w3.org/2000/svg">
<g clip-path="url(#clip0_0_56)">
<path d="M0.889136 3.85348L2.62495 5.60348C2.71796 5.69722 2.84408 5.74988 2.97559 5.74988C3.10709 5.74988 3.23322 5.69722 3.32622 5.60348L5.06204 3.85348C5.15238 3.75918 5.20237 3.63287 5.20124 3.50178C5.20011 3.37068 5.14795 3.24527 5.056 3.15257C4.96404 3.05986 4.83965 3.00728 4.70962 3.00614C4.57958 3.005 4.4543 3.0554 4.36077 3.14648L3.47153 4.04298L3.47153 0.74997C3.47153 0.617362 3.41928 0.490185 3.32627 0.396416C3.23327 0.302648 3.10712 0.249969 2.97559 0.249969C2.84405 0.249969 2.71791 0.302648 2.6249 0.396416C2.53189 0.490185 2.47964 0.617362 2.47964 0.74997L2.47964 4.04298L1.59041 3.14648C1.49687 3.0554 1.37159 3.005 1.24156 3.00614C1.11152 3.00728 0.987131 3.05986 0.895178 3.15257C0.803225 3.24527 0.751067 3.37068 0.749937 3.50178C0.748807 3.63287 0.798796 3.75918 0.889136 3.85348Z" fill="#FF5B5B"/>
</g>
<defs>
<clipPath id="clip0_0_56">
<rect width="5.64706" height="5.69322" fill="white" transform="translate(5.95134 6) scale(1.05389) rotate(-180)"/>
</clipPath>
</defs>
</svg>
