<svg width="20" height="20" viewBox="0 0 20 20" fill="none" xmlns="http://www.w3.org/2000/svg">
<path d="M5 17.5H15C15.663 17.5 16.2989 17.2366 16.7678 16.7678C17.2366 16.299 17.5 15.6631 17.5 15V5.00004C17.5 4.337 17.2366 3.70111 16.7678 3.23227C16.2989 2.76343 15.663 2.50004 15 2.50004H14.1667C14.1667 2.27903 14.0789 2.06706 13.9226 1.91078C13.7663 1.7545 13.5543 1.66671 13.3333 1.66671C13.1123 1.66671 12.9004 1.7545 12.7441 1.91078C12.5878 2.06706 12.5 2.27903 12.5 2.50004H7.5C7.5 2.27903 7.4122 2.06706 7.25592 1.91078C7.09964 1.7545 6.88768 1.66671 6.66667 1.66671C6.44565 1.66671 6.23369 1.7545 6.07741 1.91078C5.92113 2.06706 5.83333 2.27903 5.83333 2.50004H5C4.33696 2.50004 3.70107 2.76343 3.23223 3.23227C2.76339 3.70111 2.5 4.337 2.5 5.00004V15C2.5 15.6631 2.76339 16.299 3.23223 16.7678C3.70107 17.2366 4.33696 17.5 5 17.5ZM4.16667 5.00004C4.16667 4.77903 4.25446 4.56706 4.41074 4.41078C4.56702 4.2545 4.77899 4.16671 5 4.16671H5.83333V5.00004C5.83333 5.22105 5.92113 5.43302 6.07741 5.5893C6.23369 5.74558 6.44565 5.83337 6.66667 5.83337C6.88768 5.83337 7.09964 5.74558 7.25592 5.5893C7.4122 5.43302 7.5 5.22105 7.5 5.00004V4.16671H12.5V5.00004C12.5 5.22105 12.5878 5.43302 12.7441 5.5893C12.9004 5.74558 13.1123 5.83337 13.3333 5.83337C13.5543 5.83337 13.7663 5.74558 13.9226 5.5893C14.0789 5.43302 14.1667 5.22105 14.1667 5.00004V4.16671H15C15.221 4.16671 15.433 4.2545 15.5893 4.41078C15.7455 4.56706 15.8333 4.77903 15.8333 5.00004V7.50004H4.16667V5.00004ZM4.16667 9.16671H15.8333V15C15.8333 15.2211 15.7455 15.433 15.5893 15.5893C15.433 15.7456 15.221 15.8334 15 15.8334H5C4.77899 15.8334 4.56702 15.7456 4.41074 15.5893C4.25446 15.433 4.16667 15.2211 4.16667 15V9.16671Z" fill="#464255"/>
</svg>
