<svg width="20" height="20" viewBox="0 0 20 20" fill="none" xmlns="http://www.w3.org/2000/svg">
<path d="M5.83333 10.0002V13.3335C5.83333 13.5545 5.92112 13.7665 6.0774 13.9228C6.23369 14.079 6.44565 14.1668 6.66666 14.1668H9.99999C10.1097 14.1675 10.2184 14.1465 10.3199 14.105C10.4214 14.0635 10.5138 14.0024 10.5917 13.9252L16.6667 7.8585C17.199 7.31894 17.4974 6.59146 17.4974 5.8335C17.4974 5.07555 17.199 4.34807 16.6667 3.8085L16.1917 3.3335C15.6441 2.81663 14.9196 2.5287 14.1667 2.5287C13.4137 2.5287 12.6892 2.81663 12.1417 3.3335L6.07499 9.4085C5.99776 9.48637 5.93665 9.57872 5.89518 9.68025C5.85371 9.78178 5.83269 9.8905 5.83333 10.0002ZM7.49999 10.3418L13.3333 4.5085C13.559 4.2964 13.857 4.17831 14.1667 4.17831C14.4763 4.17831 14.7744 4.2964 15 4.5085L15.4667 4.97517C15.6865 5.19681 15.8099 5.49633 15.8099 5.8085C15.8099 6.12068 15.6865 6.4202 15.4667 6.64184L9.63333 12.4752H7.49999V10.3418Z" fill="#464255"/>
<path d="M16.6667 10C16.4457 10 16.2337 10.0878 16.0774 10.2441C15.9211 10.4004 15.8333 10.6123 15.8333 10.8333V15C15.8333 15.221 15.7455 15.433 15.5893 15.5893C15.433 15.7455 15.221 15.8333 15 15.8333H5C4.77899 15.8333 4.56702 15.7455 4.41074 15.5893C4.25446 15.433 4.16667 15.221 4.16667 15V5C4.16667 4.77899 4.25446 4.56702 4.41074 4.41074C4.56702 4.25446 4.77899 4.16667 5 4.16667H9.16667C9.38768 4.16667 9.59964 4.07887 9.75592 3.92259C9.9122 3.76631 10 3.55435 10 3.33333C10 3.11232 9.9122 2.90036 9.75592 2.74408C9.59964 2.5878 9.38768 2.5 9.16667 2.5H5C4.33696 2.5 3.70107 2.76339 3.23223 3.23223C2.76339 3.70107 2.5 4.33696 2.5 5V15C2.5 15.663 2.76339 16.2989 3.23223 16.7678C3.70107 17.2366 4.33696 17.5 5 17.5H15C15.663 17.5 16.2989 17.2366 16.7678 16.7678C17.2366 16.2989 17.5 15.663 17.5 15V10.8333C17.5 10.6123 17.4122 10.4004 17.2559 10.2441C17.0996 10.0878 16.8877 10 16.6667 10Z" fill="#464255"/>
</svg>
