<svg width="13" height="12" viewBox="0 0 13 12" fill="none" xmlns="http://www.w3.org/2000/svg">
<path d="M5.32903 0.611364C5.67884 -0.203747 6.83444 -0.203749 7.18425 0.611362L8.19826 2.97418C8.34433 3.31455 8.66507 3.54758 9.03391 3.58132L11.5944 3.81556C12.4778 3.89636 12.8349 4.9954 12.1677 5.57997L10.2339 7.27451C9.95534 7.51861 9.83283 7.89566 9.91471 8.25688L10.4832 10.7645C10.6793 11.6295 9.7444 12.3088 8.98229 11.8549L6.7731 10.5394C6.45487 10.3499 6.05841 10.3499 5.74018 10.5394L3.53099 11.8549C2.76888 12.3088 1.83398 11.6295 2.03009 10.7645L2.59856 8.25688C2.68045 7.89566 2.55794 7.51861 2.27937 7.27451L0.345542 5.57997C-0.321577 4.9954 0.0355208 3.89636 0.918834 3.81556L3.47936 3.58132C3.8482 3.54758 4.16894 3.31455 4.31501 2.97418L5.32903 0.611364Z" fill="#F7C604"/>
</svg>
