<svg width="625" height="136" viewBox="0 0 625 136" fill="none" xmlns="http://www.w3.org/2000/svg">
<path d="M59.1699 44.8455L5.2884 101.022C1.89481 104.56 0 109.273 0 114.175V136H624.569V25.3336C624.569 18.5083 620.908 12.2074 614.979 8.82653L603.839 2.47429C595.389 -2.34408 584.683 0.0652593 579.081 8.04587L539.992 63.7329C534.036 72.2184 522.408 74.3225 513.884 68.4572L506.667 63.4916C498.075 57.58 486.348 59.7697 480.439 68.3885L463.554 93.018C456.18 103.775 440.46 104.012 432.768 93.4826L401.571 50.7784C394.306 40.8327 379.687 40.3816 371.829 49.8605L349.672 76.5859C344.309 83.0549 335.351 85.202 327.663 81.8615L301.55 70.5153C295.2 67.7563 287.812 69.3053 283.087 74.3859C276.53 81.437 265.377 81.333 258.951 74.1609L202.286 10.9131C194.391 2.10093 180.486 2.63572 173.283 12.0286L134.745 62.2862C127.886 71.2312 114.828 72.2199 106.714 64.4086L85.838 44.3112C78.3194 37.073 66.3958 37.3119 59.1699 44.8455Z" fill="url(#paint0_linear_1_664)"/>
<defs>
<linearGradient id="paint0_linear_1_664" x1="312.262" y1="-99.0253" x2="312.284" y2="136" gradientUnits="userSpaceOnUse">
<stop stop-color="#6EC8EF"/>
<stop offset="1" stop-color="white"/>
</linearGradient>
</defs>
</svg>
